<svg preserveAspectRatio="none" overflow="visible" style="display: block;" width="179.204" height="167.009" viewBox="0 0 179.204 167.009" fill="none" xmlns="http://www.w3.org/2000/svg">
<g id="_x31_">
<path id="Vector" d="M89.4732 127.864C131.287 127.864 165.183 99.2405 165.183 63.9319C165.183 28.6233 131.287 0 89.4732 0C47.6598 0 13.7633 28.6233 13.7633 63.9319C13.7633 99.2405 47.6598 127.864 89.4732 127.864Z" fill="#E6ECFF"/>
<path id="Vector_2" d="M87.0941 167.009C111.747 167.009 131.733 165.389 131.733 163.39C131.733 161.392 111.747 159.772 87.0941 159.772C62.4409 159.772 42.4556 161.392 42.4556 163.39C42.4556 165.389 62.4409 167.009 87.0941 167.009Z" fill="#C7D1EA"/>
<path id="Vector_3" d="M104.715 122.26C103.351 128.447 101.284 135.335 99.7249 141.561C98.0875 147.67 96.3722 153.857 94.5788 159.966C93.7212 163.234 88.5361 162.262 88.848 158.915C90.4464 146.697 91.8888 133.35 93.1364 121.093C93.7991 113.622 105.651 114.789 104.715 122.26Z" fill="#ED7E97"/>
<path id="Vector_4" d="M68.2627 159.187C68.3407 162.417 63.3895 163.118 62.5319 159.966C60.7385 153.857 59.0622 147.747 57.3858 141.56C55.7874 135.646 54.033 129.031 52.5126 123.116C50.6023 115.178 63.0387 112.921 63.9743 121.093C65.2219 133.584 66.6643 146.852 68.2627 159.187Z" fill="#ED7E97"/>
<path id="Vector_5" d="M64.9504 130.548L65.5352 135.996C58.6738 138.292 55.8668 135.724 55.8668 135.724L54.9311 132.377C54.1514 129.303 53.2938 126.268 52.5141 123.194C51.7343 120.12 53.5667 116.89 56.7245 116.112C59.8043 115.334 63.0402 117.163 63.8199 120.315C63.8978 120.587 63.9368 120.859 63.9368 121.171V121.249L64.9115 130.587L64.9504 130.548Z" fill="#E26988"/>
<path id="Vector_6" d="M104.715 122.26C104.715 122.533 104.637 122.844 104.598 123.116C103.818 126.19 103 129.303 102.181 132.3C102.181 132.3 97.8535 136.891 91.5768 135.062L92.2395 130.471L93.2142 121.093C93.5261 117.863 96.45 115.567 99.6078 115.918C102.766 116.229 105.066 119.147 104.754 122.299L104.715 122.26Z" fill="#E26988"/>
<path id="Vector_7" d="M106.743 161.172C106.691 161.224 106.691 161.224 106.743 161.172C105.378 164.441 89.5111 165.919 88.9263 159.577V158.915C88.9263 158.721 89.0043 158.526 89.0043 158.331C89.0043 158.137 89.0043 158.215 89.0823 158.137L92.435 157.164L95.6708 156.191H95.7488C96.8014 156.269 106.197 156.853 106.86 160.588C106.86 160.783 106.86 160.977 106.782 161.172H106.743Z" fill="#ED7E97"/>
<path id="Vector_8" d="M106.743 161.172C106.691 161.224 106.691 161.224 106.743 161.172C106.743 161.172 102.649 158.526 95.2419 157.748C95.047 157.748 94.8521 157.67 94.6572 157.67C93.4876 157.553 92.7469 156.308 93.2147 155.258L100.31 139.304L99.7253 141.6C98.3998 146.464 97.0743 151.328 95.7098 156.191C96.7624 156.269 106.158 156.853 106.821 160.588C106.821 160.783 106.821 160.978 106.743 161.172Z" fill="#F490AA"/>
<path id="Vector_9" d="M89.667 158.176L88.9263 158.799L88.3415 158.721C89.1992 152.106 89.9789 145.53 90.5637 139.927L91.6163 130.549L92.5909 121.171C92.7858 119.459 93.5655 117.942 94.891 116.852C96.2166 115.802 97.9319 115.257 99.5693 115.49C101.285 115.685 102.805 116.463 103.897 117.786C104.949 119.109 105.495 120.821 105.261 122.455C105.261 122.728 105.183 123.117 105.066 123.389C104.287 126.463 103.468 129.576 102.649 132.65L100.232 141.833C99.1795 145.841 97.737 151.094 96.2166 156.425C96.1386 156.737 95.8267 156.892 95.4758 156.814C95.125 156.737 95.008 156.425 95.086 156.075C96.6064 150.744 98.0489 145.491 99.1015 141.483L101.519 132.3C102.298 129.226 103.156 126.191 103.936 123.117C104.014 122.845 104.053 122.572 104.053 122.339C104.17 120.977 103.78 119.576 102.922 118.525C102.064 117.397 100.817 116.735 99.3744 116.619C98.0099 116.502 96.6064 116.891 95.5538 117.747C94.4232 118.603 93.7605 119.848 93.6435 121.288L92.6689 130.744L91.6163 140.199C91.0315 145.647 90.4467 151.522 89.589 158.215L89.667 158.176Z" fill="#BF4B6F"/>
<path id="Vector_10" d="M68.2635 159.187C68.2635 159.499 68.1856 159.849 68.1466 160.16C66.6261 166.269 49.7064 164.168 50.3302 160.549C50.9929 156.853 60.3885 156.23 61.4411 156.152H61.519L63.8972 156.892L68.1076 158.137C68.1076 158.215 68.1076 158.254 68.1856 158.409C68.2635 158.604 68.2635 158.798 68.2635 158.954V159.032C68.3415 159.11 68.3415 159.149 68.3415 159.226L68.2635 159.187Z" fill="#ED7E97"/>
<path id="Vector_11" d="M63.8977 156.892C64.1706 157.553 63.7028 158.215 62.9621 158.215H61.9875C54.6192 158.332 50.2918 160.511 50.2918 160.511C50.9546 156.814 60.3501 156.191 61.4027 156.114C60.0382 151.25 58.7127 146.386 57.3872 141.522L56.8024 139.226L63.8977 156.892Z" fill="#F490AA"/>
<path id="Vector_12" d="M68.1865 159.305C67.9136 159.305 67.6407 158.604 67.5627 158.332C66.705 151.639 65.9643 145.569 65.3795 139.966L64.3269 130.588L63.3523 121.133C63.3523 120.86 63.2743 120.666 63.2353 120.393C62.4946 117.553 59.6096 115.918 56.8417 116.658C53.9957 117.397 52.3583 120.276 53.0991 123.039C53.8788 126.113 54.6975 129.226 55.5162 132.222L57.9333 141.406C58.9859 145.413 60.5453 150.628 62.0657 155.959C62.1437 156.27 61.7149 156.27 61.403 156.309C61.0911 156.348 60.8962 156.659 60.8572 156.309C59.3367 150.978 57.8943 145.725 56.8417 141.717L54.4246 132.534C53.6449 129.46 52.7872 126.425 52.0075 123.273C51.1498 119.848 53.177 116.385 56.6078 115.451C60.0385 114.595 63.5082 116.619 64.4439 120.043C64.5218 120.354 64.5608 120.627 64.6388 120.977V121.055L65.6134 130.432L66.666 139.81C67.2508 145.375 68.0305 151.951 68.8882 158.605C68.9662 158.916 68.6933 159.188 68.3424 159.266H68.2255L68.1865 159.305Z" fill="#BF4B6F"/>
<path id="Vector_13" d="M145.143 98.2132C145.143 108.058 137.112 116.074 127.249 116.074H126.586C124.481 123.545 117.58 129.07 109.354 129.07C101.128 129.07 102.961 128.214 100.349 126.658C97.0737 131.132 91.8107 134.012 85.8849 134.012C79.9591 134.012 76.8792 132.183 73.7214 129.226C70.4856 132.183 66.2362 134.012 61.5579 134.012C56.8796 134.012 50.9538 131.444 47.679 127.436C45.3789 128.486 42.8838 129.07 40.1938 129.07C33.0984 129.07 26.9777 124.946 24.0538 119.031C23.8589 118.564 23.586 118.097 23.469 117.591C23.0012 117.669 22.4944 117.786 22.0266 117.864C21.3638 117.941 20.662 117.98 19.9213 117.98C12.8259 117.98 6.70523 113.856 3.78132 107.863C2.65073 105.49 1.98797 102.883 1.98797 100.042C1.98797 97.2015 2.84566 93.8551 4.28812 91.248C1.91 88.2129 0.545495 84.3996 0.545495 80.2749C0.545495 72.0646 6.12045 65.0994 13.7226 62.9982C13.2548 61.4028 13.0599 59.7685 13.0599 58.0564C13.0599 48.2117 21.0909 40.1959 30.9542 40.1959C40.8176 40.1959 35.9054 40.7407 38.0496 41.6356C39.4141 33.114 46.8214 26.5379 55.7491 26.5379C64.6767 26.5379 66.821 29.3785 70.0957 33.6977C73.1756 28.3668 79.3743 24.8258 85.9629 24.8258C95.3194 24.8258 103 31.9856 103.779 41.1298C105.573 40.5461 107.483 40.1959 109.432 40.1959C119.296 40.1959 127.327 48.2117 127.327 58.0564V58.5233C128.691 58.8346 130.017 59.3016 131.225 59.8852C137.229 62.7647 141.283 68.8738 141.283 75.9947C141.283 83.1155 140.504 82.1038 139.061 84.672C142.804 88.0184 145.182 92.8045 145.182 98.2132H145.143Z" fill="#FC9DB8"/>
<path id="Vector_14" d="M136.839 89.9639C136.839 99.8086 128.808 107.824 118.945 107.824H118.282C116.177 115.295 109.276 120.821 101.05 120.821C92.8243 120.821 94.6566 119.965 92.0446 118.408C88.7698 122.883 83.5068 125.763 77.581 125.763C71.6552 125.763 68.5753 123.934 65.4175 120.977C62.1817 123.934 57.9322 125.763 53.254 125.763C48.5757 125.763 42.6499 123.195 39.3751 119.187C37.075 120.237 34.5799 120.821 31.8899 120.821C29.1999 120.821 26.4319 120.159 24.0538 119.031C23.3131 118.72 22.6113 118.253 21.9486 117.864C18.8687 115.84 16.4906 112.883 15.1651 109.381C13.9175 109.653 12.5141 109.77 11.2275 109.692C8.57653 109.614 6.04248 108.953 3.78131 107.902C2.65073 105.529 1.98797 102.922 1.98797 100.081C1.98797 97.2404 2.84566 93.894 4.28812 91.2869C1.91 88.2518 0.545495 84.4385 0.545495 80.3138C0.545495 72.1035 6.12045 65.1383 13.7226 63.0371C13.2548 61.4417 13.0599 59.8074 13.0599 58.0953C13.0599 48.2506 21.0909 40.2348 30.9542 40.2348C40.8176 40.2348 35.9054 40.7796 38.0496 41.6746C39.4141 33.1529 46.8214 26.5768 55.749 26.5768C64.6767 26.5768 66.8209 29.4174 70.0957 33.7366H70.4856C73.5654 28.4057 79.3743 24.8647 85.9629 24.8647C95.3194 24.8647 103 32.0245 103.779 41.1687C105.573 40.585 107.483 40.2348 109.432 40.2348C119.296 40.2348 127.327 48.2506 127.327 58.0953V58.5622C128.691 58.8735 130.017 59.3404 131.225 59.9241C132.356 62.2977 133.018 64.9048 133.018 67.7454C133.018 70.5859 132.239 73.8545 130.796 76.4227C134.539 79.6523 136.917 84.5163 136.917 89.8861L136.839 89.9639Z" fill="#FFA6BD"/>
<path id="Vector_15" d="M127.211 58.1731C121.207 38.8729 102.338 44.2427 102.338 44.2427C102.338 44.2427 100.311 34.009 88.9658 30.896C77.699 27.8609 70.6036 37.6667 70.6036 37.6667C70.6036 37.6667 64.6778 31.2852 54.8145 32.3358C44.9511 33.3864 40.9746 46.1494 40.9746 46.1494C40.9746 46.1494 32.6317 43.27 23.1582 48.1728C13.7627 53.1146 15.9849 66.5002 15.9849 66.5002C-2.88414 76.3449 3.93833 91.0535 4.0163 91.248C1.63818 88.2129 0.273698 84.3996 0.273698 80.275C0.273698 72.0646 5.84863 65.0994 13.4508 62.9982C12.983 61.4028 12.7881 59.7685 12.7881 58.0564C12.7881 48.2117 20.8191 40.1959 30.6824 40.1959C40.5458 40.1959 35.6336 40.7407 37.7778 41.6356C39.1423 33.114 46.5495 26.5379 55.4772 26.5379C64.4049 26.5379 66.5491 29.3785 69.8239 33.6977H70.2138C73.2936 28.3668 79.1025 24.8258 85.691 24.8258C95.0476 24.8258 102.728 31.9856 103.507 41.1298C105.301 40.5461 107.211 40.1959 109.16 40.1959C119.18 40.2738 127.211 48.2896 127.211 58.1342V58.1731Z" fill="#FFB8CC"/>
<path id="Vector_16" d="M85.8462 134.595C81.3239 134.595 77.0355 132.961 73.6827 130.004C70.252 132.961 65.9636 134.595 61.5192 134.595C57.0749 134.595 50.9931 132.261 47.4844 128.136C45.1453 129.148 42.6892 129.654 40.1551 129.654C33.1377 129.654 26.5882 125.568 23.5083 119.264C23.4303 119.109 23.3914 118.992 23.3134 118.836C23.2354 118.642 23.1185 118.447 23.0405 118.214C22.9625 118.214 22.8845 118.214 22.8456 118.252C22.5727 118.291 22.3388 118.369 22.1048 118.408C21.4421 118.486 20.6624 118.564 19.9216 118.564C12.7873 118.564 6.39364 114.556 3.2748 108.135C2.06625 105.567 1.4425 102.843 1.4425 100.081C1.4425 97.318 2.18321 94.0883 3.62568 91.3256C1.24756 88.1349 2.72393e-05 84.3604 2.72393e-05 80.3136C2.72393e-05 72.22 5.34103 65.0602 13.0212 62.6477C12.6703 61.2469 12.4754 59.7683 12.4754 58.134C12.4754 47.978 20.7793 39.6898 30.9545 39.6898C41.1298 39.6898 35.4769 40.1179 37.6211 40.8961C39.3754 32.2188 46.8996 26.0318 55.7883 26.0318C64.6771 26.0318 66.5094 28.4833 70.0571 32.7636C73.4098 27.6272 79.5695 24.3197 85.9632 24.3197C95.2417 24.3197 103.156 31.3238 104.286 40.4292C105.963 39.9233 107.678 39.6898 109.432 39.6898C119.608 39.6898 127.912 47.978 127.912 58.134C129.198 58.4842 130.407 58.9122 131.459 59.457C137.853 62.531 141.868 68.9125 141.868 76.0722C141.868 83.232 141.128 82.0257 139.763 84.6328C143.623 88.2516 145.728 93.0766 145.728 98.2908C145.728 108.447 137.424 116.735 127.249 116.735H127.015C124.637 124.401 117.463 129.731 109.316 129.731C101.168 129.731 103.117 128.953 100.466 127.475C96.9571 131.988 91.4991 134.634 85.8462 134.634V134.595ZM73.6437 128.642C73.7997 128.642 73.9166 128.681 74.0336 128.798C77.2304 131.794 81.4019 133.428 85.8072 133.428C90.2126 133.428 96.5283 130.782 99.803 126.307C99.998 126.074 100.31 125.996 100.583 126.152C103.156 127.669 106.158 128.486 109.316 128.486C117.035 128.486 123.896 123.311 126.001 115.918C126.079 115.684 126.313 115.49 126.547 115.49H127.21C136.761 115.49 144.519 107.746 144.519 98.213C144.519 88.6796 142.414 88.524 138.594 85.0997C138.399 84.9052 138.321 84.6328 138.477 84.3604C139.88 81.8701 140.621 78.9517 140.621 75.9944C140.621 69.3016 136.878 63.3092 130.875 60.4298C129.744 59.885 128.496 59.4181 127.093 59.1068C126.82 59.0289 126.625 58.7955 126.625 58.5231V58.0561C126.625 48.5228 118.867 40.7794 109.316 40.7794C99.764 40.7794 105.612 41.0907 103.858 41.6743C103.702 41.7132 103.507 41.6743 103.351 41.5965C103.195 41.4798 103.117 41.3241 103.078 41.1685C102.298 32.3355 94.7349 25.4093 85.8072 25.4093C76.8795 25.4093 73.4878 28.7946 70.4469 33.9698C70.33 34.1255 70.174 34.2422 69.9791 34.2422C69.7842 34.2422 69.5892 34.1644 69.4723 34.0087C66.1195 29.6117 61.0904 27.0825 55.5934 27.0825C47.0556 27.0825 39.8433 33.2305 38.4788 41.7132C38.4788 41.9078 38.3228 42.0635 38.1669 42.1413C38.0109 42.2191 37.816 42.2191 37.6601 42.1413C35.5159 41.2074 33.1377 40.7404 30.7986 40.7404C21.2472 40.7404 13.489 48.4839 13.489 58.0172C13.489 67.5506 13.684 61.3247 14.1128 62.7645C14.1518 62.9201 14.1128 63.0757 14.0738 63.1925C13.9958 63.3481 13.8789 63.426 13.7229 63.4649C6.23772 65.5661 0.974666 72.4146 0.974666 80.1969C0.974666 87.9792 2.2222 87.7847 4.60032 90.8198C4.75626 91.0143 4.75625 91.2478 4.63929 91.4423C3.15784 94.1272 2.41714 97.0067 2.41714 99.964C2.41714 102.921 3.00191 105.1 4.13249 107.513C7.0564 113.544 13.0212 117.28 19.7267 117.28C26.4322 117.28 21.1692 117.202 21.7929 117.163C21.9879 117.163 22.2218 117.085 22.4557 117.046C22.7286 117.007 22.9625 116.929 23.1964 116.891C23.5083 116.852 23.7812 117.046 23.8592 117.319C23.9372 117.63 24.0931 117.941 24.249 118.252C24.327 118.408 24.366 118.525 24.444 118.681C27.3289 124.556 33.4496 128.37 40.0382 128.37C46.6268 128.37 44.9894 127.825 47.2895 126.774C47.5234 126.657 47.8353 126.735 47.9912 126.93C51.305 130.977 56.2172 133.272 61.4412 133.272C66.6653 133.272 69.9401 131.638 73.2149 128.642C73.3318 128.525 73.4878 128.486 73.6047 128.486L73.6437 128.642Z" fill="#BF4B6F"/>
<path id="Vector_17" d="M78.2452 125.101C77.9723 124.906 77.9723 124.517 78.1673 124.323C81.3251 120.432 78.1673 114.322 78.0893 114.284C77.9723 114.011 78.0113 113.7 78.2062 113.544C83.1964 109.731 85.9644 105.528 86.5492 101.054C87.2119 95.5281 84.0541 91.5202 84.0541 91.4813C83.8592 91.2868 83.8592 90.9366 84.1321 90.7031C90.9155 83.6601 84.405 75.2552 84.0541 74.866C83.8592 74.5937 83.9371 74.2824 84.1321 74.0878C84.405 73.8932 84.7168 73.9711 84.9118 74.1656C85.1067 74.3602 92.0851 83.4266 85.1847 91.1311C86.0424 92.2985 88.2255 96.1118 87.6018 101.131C87.017 105.801 84.249 110.12 79.1809 114.089C79.9216 115.684 82.0658 121.132 78.908 124.984C78.6741 125.334 78.3232 125.257 78.1673 125.179L78.2452 125.101Z" fill="#ED7E97"/>
<path id="Vector_18" d="M45.4176 73.3874C42.5327 80.5472 45.1057 88.2906 51.0705 90.6642C57.0743 93.0378 64.2476 89.1467 67.0546 81.9869C69.9395 74.8272 67.3665 67.0838 61.4017 64.7101C55.4759 62.3365 48.3025 66.2277 45.4176 73.3874Z" fill="white"/>
<path id="Vector_19" d="M66.6259 74.0488C65.9631 78.8349 62.1035 82.2591 57.9321 81.6754C53.7996 81.0918 51.0316 76.7337 51.6944 71.9475C52.3572 67.1614 56.2167 63.7372 60.3882 64.3208C64.4817 64.8267 67.2886 69.2626 66.6259 74.0488Z" fill="#22213F"/>
<path id="Vector_20" d="M58.6343 69.6519C58.1665 70.7803 56.802 71.2862 55.4765 70.7803C54.151 70.2356 53.4882 68.9515 53.956 67.8231C54.4239 66.6946 55.7884 66.1888 57.1139 66.6946C58.3614 67.2394 59.1021 68.5235 58.6343 69.6519Z" fill="white"/>
<path id="Vector_21" d="M114.851 72.3368C117.892 79.4187 115.514 87.2399 109.588 89.7303C103.662 92.2206 96.4111 88.5629 93.4092 81.4421C90.3684 74.3602 92.7465 66.5389 98.6723 64.0486C104.598 61.4804 111.849 65.2159 114.851 72.3368Z" fill="white"/>
<path id="Vector_22" d="M106.35 81.4143C110.473 80.7477 113.188 76.338 112.413 71.5648C111.639 66.7917 107.668 63.4627 103.545 64.1293C99.4219 64.7958 96.7071 69.2056 97.4817 73.9787C98.2562 78.7518 102.227 82.0808 106.35 81.4143Z" fill="#22213F"/>
<path id="Vector_23" d="M99.2582 68.0178C98.7904 69.1462 99.5311 70.4303 100.779 70.975C102.104 71.5198 103.469 70.975 103.936 69.8466C104.404 68.7181 103.664 67.4341 102.416 66.8893C101.091 66.4224 99.726 66.8893 99.2582 68.0178Z" fill="white"/>
<path id="Vector_24" d="M94.2679 50.3909C98.0885 51.7139 101.714 51.3637 102.299 49.6516C102.884 47.8616 100.311 45.3713 96.4901 44.0872C92.6695 42.7642 89.0439 43.1144 88.4591 44.8265C87.7963 46.5386 90.4473 49.0289 94.2679 50.3909Z" fill="#ED7E97"/>
<path id="Vector_25" d="M98.6733 51.7914C97.2308 51.7914 95.6324 51.4801 94.073 50.9354C89.8625 49.4956 87.1725 46.6551 87.8743 44.5538C88.615 42.4526 92.4746 41.9857 96.685 43.4254C98.5953 44.0869 100.311 45.0597 101.48 46.1881C102.728 47.4333 103.274 48.6785 102.845 49.7291C102.455 50.7797 101.246 51.519 99.5699 51.6358C99.258 51.7525 98.9852 51.7525 98.6343 51.7525L98.6733 51.7914ZM94.4628 49.8069C96.2562 50.3906 98.0105 50.7408 99.453 50.5851C100.701 50.4684 101.558 50.0404 101.753 49.4567C101.948 48.8731 101.558 48.017 100.623 47.0831C99.5699 46.1103 98.0495 45.1764 96.2951 44.5928C92.5525 43.2698 89.4337 43.7367 89.0048 44.9819C88.537 46.1492 90.7202 48.445 94.4628 49.768V49.8069Z" fill="#BF4B6F"/>
<path id="Vector_26" d="M67.9921 60.1959C71.7347 58.6005 74.1908 55.9157 73.4501 54.2035C72.7094 52.4914 69.1227 52.3747 65.3411 53.9312C61.5985 55.5265 59.1424 58.2114 59.8831 59.9235C60.6239 61.6357 64.2105 61.7524 67.9921 60.1959Z" fill="#ED7E97"/>
<path id="Vector_27" d="M63.1176 61.9084C61.2853 61.9084 59.8818 61.3247 59.375 60.1963C58.5173 58.1729 61.0124 55.2156 65.1838 53.5035C69.2773 51.7913 73.1369 51.9859 73.9946 54.0871C74.8522 56.1105 72.3572 59.0678 68.1857 60.7799C66.3924 61.5193 64.638 61.9084 63.1176 61.9084ZM70.2909 53.5035C68.9654 53.5035 67.406 53.8148 65.6127 54.5541C61.909 56.1495 59.9598 58.562 60.4666 59.7293C61.0124 60.8967 64.0922 61.2469 67.7569 59.6515C71.4605 58.0561 73.4098 55.6436 72.903 54.4762C72.6301 53.8147 71.6554 53.5035 70.252 53.5035H70.2909Z" fill="#BF4B6F"/>
<path id="Vector_28" d="M49.1227 42.53C49.0057 42.53 48.9277 42.53 48.8108 42.4132C48.5379 42.2187 48.4989 41.8685 48.6938 41.635C48.7718 41.5572 53.2941 35.0589 60.8573 38.2886C61.1302 38.4053 61.3251 38.7555 61.1692 39.0668C61.0522 39.3392 60.7014 39.5338 60.3895 39.3781C53.684 36.5376 49.7854 42.063 49.5905 42.3354C49.5125 42.4521 49.3176 42.53 49.1227 42.53Z" fill="#ED7E97"/>
<path id="Vector_29" d="M54.9712 116.813C53.6457 116.813 49.7082 116.424 48.2657 111.949C48.1877 111.638 48.3437 111.287 48.6556 111.21C48.9674 111.132 49.3183 111.287 49.3963 111.599C50.7608 115.996 55.0492 115.684 55.2441 115.607C55.556 115.607 55.8289 115.801 55.9069 116.151C55.9069 116.463 55.7119 116.735 55.3611 116.813C55.3611 116.735 55.1661 116.813 54.9712 116.813Z" fill="#ED7E97"/>
<path id="Vector_30" d="M95.9046 122.65C95.1249 122.65 94.2672 122.533 93.2536 122.105C92.9417 121.988 92.7857 121.638 92.9417 121.366C93.0586 121.054 93.4095 120.899 93.6824 121.054C98.0098 122.689 100.388 119.07 100.466 118.953C100.661 118.681 101.012 118.642 101.246 118.759C101.518 118.953 101.557 119.303 101.441 119.537C101.441 119.537 99.4523 122.611 95.9046 122.611V122.65Z" fill="#ED7E97"/>
<path id="Vector_31" d="M34.7761 97.5514C34.6981 97.5514 34.6591 97.5514 34.5812 97.4735C34.5032 97.4735 29.513 95.4891 30.3707 90.0025C30.4487 89.6912 30.6826 89.4577 31.0335 89.5356C31.3454 89.6134 31.5793 89.8469 31.5013 90.1971C30.7606 94.7886 34.7761 96.384 34.932 96.4229C35.2439 96.5397 35.3998 96.8899 35.2439 97.1622C35.2439 97.4346 35.049 97.5514 34.7761 97.5514Z" fill="#ED7E97"/>
<path id="Vector_32" d="M113.682 101.715C113.37 101.715 113.097 101.443 113.097 101.17C113.097 100.898 113.292 100.587 113.643 100.587C118.322 100.314 118.906 96.073 118.984 95.8395C119.062 95.5282 119.296 95.2948 119.647 95.2948C119.959 95.3726 120.154 95.6061 120.154 95.9563C120.154 96.0341 119.374 101.326 113.721 101.676L113.682 101.715Z" fill="#ED7E97"/>
<path id="Vector_33" d="M24.2106 69.7683C23.8987 69.7683 23.6258 69.4959 23.6258 69.1846C23.4309 61.5579 29.2787 59.729 30.9161 59.3399C31.5009 56.5772 32.7484 54.476 34.6197 53.2308C37.5826 51.2463 40.9354 51.9856 41.1303 51.9856C41.4422 52.0635 41.6761 52.3748 41.5982 52.6471C41.5202 52.9584 41.2083 53.1919 40.9354 53.1141C40.8574 53.1141 37.8555 52.5304 35.3605 54.1647C33.6451 55.2931 32.5925 57.2387 32.0857 59.8847C32.0077 60.1571 31.8128 60.3516 31.5399 60.3516C31.267 60.4295 24.6394 61.3244 24.8344 69.1068C24.8344 69.5737 24.6394 69.8461 24.2496 69.8461C24.3016 69.8461 24.3016 69.8461 24.2496 69.8461L24.2106 69.7683Z" fill="#ED7E97"/>
<path id="Vector_34" d="M130.056 72.92H129.861C129.549 72.8422 129.393 72.5309 129.471 72.1807C129.471 72.1807 130.407 69.1456 128.887 66.5385C127.912 64.7486 126.041 63.5034 123.507 62.803C123.234 62.7252 123.117 62.5306 123.039 62.2582C123.039 61.9858 122.649 55.293 114.93 54.8261C114.618 54.8261 114.345 54.5537 114.423 54.2424C114.423 53.9311 114.696 53.6587 115.008 53.6976C122.649 54.1646 123.975 60.1181 124.169 61.8302C126.859 62.6084 128.848 64.0481 129.978 66.0326C131.694 69.1067 130.719 72.4531 130.641 72.6087C130.563 72.6865 130.329 72.8811 130.095 72.8811L130.056 72.92Z" fill="#ED7E97"/>
<path id="Vector_35" d="M57.1541 124.557C56.8422 124.557 56.4914 124.557 56.2185 124.479C53.8404 124.09 52.2809 122.377 51.6961 121.638C44.055 123.35 41.365 115.84 41.365 115.801C41.248 115.49 41.4429 115.14 41.6768 115.062C41.9887 114.945 42.3396 115.14 42.4176 115.373C42.4956 115.646 44.9127 122.222 51.7741 120.354C52.047 120.276 52.3199 120.432 52.4369 120.626C52.4369 120.626 53.8793 122.844 56.4524 123.272C58.1677 123.545 60.078 122.883 61.9883 121.249C62.2612 121.054 62.5731 121.055 62.768 121.327C62.963 121.599 62.963 121.911 62.6901 122.105C60.7798 123.739 58.9475 124.518 57.1541 124.518V124.557Z" fill="#ED7E97"/>
<path id="Vector_36" d="M109.978 122.649C107.6 122.649 105.768 122.065 105.69 122.065C105.378 121.987 105.222 121.676 105.3 121.326C105.378 120.976 105.69 120.859 106.041 120.937C106.43 121.054 115.202 123.777 117.892 116.19C118.009 115.878 118.36 115.723 118.633 115.878C118.945 115.995 119.101 116.345 118.945 116.618C117.307 121.559 113.136 122.649 109.978 122.649Z" fill="#ED7E97"/>
<path id="Vector_37" d="M128.069 83.6598H127.952C127.64 83.582 127.484 83.2707 127.562 82.9205C127.679 82.5314 130.135 73.6595 122.494 71.247C122.182 71.1692 122.026 70.8579 122.104 70.5077C122.182 70.1964 122.494 70.0407 122.845 70.1186C131.539 72.9591 128.693 83.1151 128.693 83.2707C128.615 83.5431 128.381 83.6598 128.108 83.6598H128.069Z" fill="#ED7E97"/>
<path id="Vector_38" d="M28.9673 120.704C6.66754 129.187 -5.72987 118.213 7.8371 95.1C13.1002 87.0063 15.2054 79.7298 21.1312 84.9051C22.9635 88.2515 21.4431 89.1076 19.1429 92.6096C15.5952 97.3568 9.31857 109.575 10.6051 113.35C12.5154 117.163 21.0142 114.478 25.4976 113.233C29.9809 111.521 33.2167 118.369 28.9673 120.704Z" fill="#ED7E97"/>
<path id="Vector_39" d="M33.372 108.719C33.255 108.992 33.0991 109.186 32.9042 109.381C32.7092 109.497 32.5143 109.653 32.3194 109.77C31.9295 109.964 31.5397 110.081 31.1888 110.315C30.799 110.587 30.4091 110.82 30.1362 111.093C29.5904 111.599 29.2785 112.143 29.0056 112.61C28.6158 113.466 28.6158 114.128 28.6158 114.245L27.1733 114.322L24.4833 114.4C24.4833 114.284 24.4833 113.155 24.9511 111.715C25.6139 109.809 27.1343 107.396 30.76 105.879C31.8126 105.412 33.0601 105.956 33.45 107.007C33.6449 107.669 33.5669 108.252 33.372 108.797V108.719Z" fill="#ED7E97"/>
<path id="Vector_40" d="M36.0232 111.248C36.0232 111.832 35.7113 112.416 35.1655 112.844C35.0486 112.96 34.8536 113.038 34.6977 113.116C34.5028 113.194 34.3078 113.31 34.1129 113.388C33.6451 113.661 33.1772 113.855 32.8654 114.128C31.267 115.256 30.6822 116.54 30.6432 116.813L28.0701 116.034L26.6277 115.567C26.6277 115.49 26.8226 115.062 27.1735 114.4C27.4464 113.933 27.8362 113.272 28.343 112.688C28.46 112.493 28.6549 112.377 28.8109 112.182C29.5516 111.443 30.4093 110.742 31.5009 110.081C31.8907 109.886 32.3586 109.614 32.8264 109.419C32.9433 109.342 33.0213 109.342 33.1383 109.303C34.1909 108.913 35.4384 109.419 35.8283 110.47C35.9452 110.781 36.0232 111.054 36.0232 111.326V111.248Z" fill="#ED7E97"/>
<path id="Vector_41" d="M36.8021 116.346C36.6851 116.463 36.5292 116.541 36.4122 116.657C36.1393 116.852 35.8274 116.93 35.4376 116.969C32.2018 117.163 29.9796 119.848 29.9017 119.926C29.1609 120.86 27.8744 120.976 27.0167 120.237C26.0811 119.498 25.9641 118.214 26.7048 117.358C26.7828 117.28 27.2506 116.774 28.0303 116.035C28.6931 115.451 29.5508 114.789 30.6814 114.206C31.9289 113.544 33.4493 112.961 35.2037 112.883H35.2817C35.5546 112.883 35.8275 112.883 36.0614 112.961C36.8411 113.233 37.4259 113.933 37.5038 114.789C37.5038 115.334 37.2309 115.918 36.8411 116.307L36.8021 116.346Z" fill="#ED7E97"/>
<path id="Vector_42" d="M178.554 55.1766C176.956 63.387 169.743 67.0058 163.077 68.7179C161.245 69.3016 159.802 72.2589 158.867 74.827C158.087 77.045 155.631 78.2902 153.331 77.5898L153.214 77.5119C151.303 76.9283 149.978 75.2161 149.978 73.2316C149.978 71.2471 149.978 72.648 150.056 72.2978C150.173 71.5195 150.329 70.858 150.446 70.3911C151.693 65.2548 156.878 61.1301 165.962 58.095C166.742 57.8226 167.404 57.3168 167.989 56.6553C169.588 54.8653 169.588 51.7913 168.067 49.9625C167.521 49.301 166.82 48.834 165.884 48.6006C163.584 48.0169 159.49 49.729 156.06 51.4411C153.681 52.6863 150.719 51.5579 149.744 49.0675C149.549 48.5227 149.432 48.0169 149.432 47.4721V46.9274C149.549 45.6044 150.212 44.437 151.42 43.6588C160.582 37.3551 172.667 38.0944 177.034 46.3048C178.203 48.6784 178.866 51.6357 178.554 55.1766Z" fill="#EA2A21"/>
<path id="Vector_43" d="M155.786 86.6955C155.241 88.9913 152.941 90.431 150.64 89.9252C148.652 89.4582 147.288 87.7072 147.288 85.7227C147.288 83.7382 147.366 85.0612 147.405 84.7499C147.95 82.4541 150.251 81.0144 152.551 81.5202C153.486 81.7148 154.188 82.1817 154.773 82.8432C155.709 83.8939 156.098 85.3336 155.747 86.7344L155.786 86.6955Z" fill="#EA2A21"/>
<path id="Vector_44" d="M146.273 27.8999C147.989 33.3865 144.792 37.978 141.322 41.2077C140.426 42.1416 140.504 44.4374 140.776 46.3051C141.01 47.9394 139.958 49.4959 138.32 49.8072H138.242C136.878 50.0796 135.513 49.457 134.89 48.2507C134.812 48.0561 134.695 47.9005 134.656 47.667C134.461 47.1223 134.344 46.7332 134.266 46.383C133.369 42.842 135.163 38.6784 139.724 33.8534C140.075 33.4643 140.348 32.9584 140.504 32.2969C140.854 30.7015 139.88 28.7949 138.359 28.1723C137.814 27.9388 137.229 27.8999 136.605 28.0166C135.007 28.4058 133.057 30.7794 131.576 32.9195C130.523 34.476 128.379 34.7484 126.937 33.5421C126.625 33.3086 126.391 32.9973 126.196 32.686C126.157 32.6082 126.04 32.4526 126.001 32.3358C125.65 31.5187 125.689 30.507 126.079 29.6899C129.588 22.8803 137.229 19.3393 142.531 22.9192C143.973 24.0087 145.299 25.6041 146.312 27.861L146.273 27.8999Z" fill="#EA2A21"/>
<path id="Vector_45" d="M142.727 54.5546C143.116 56.15 142.22 57.7843 140.621 58.1734C139.257 58.5236 137.853 57.901 137.23 56.7337C137.152 56.5391 137.035 56.3446 136.996 56.1111C136.606 54.5157 137.503 52.8814 139.101 52.4923C139.686 52.2977 140.31 52.3367 140.855 52.5701C141.713 52.8814 142.454 53.6207 142.727 54.5546Z" fill="#EA2A21"/>
<path id="Vector_46" d="M177.851 99.9249C176.876 105.606 171.925 108.213 167.364 109.497C166.116 109.925 165.181 111.988 164.557 113.777C164.011 115.334 162.374 116.229 160.775 115.762H160.697C159.372 115.334 158.436 114.167 158.397 112.805C158.397 112.61 158.397 112.416 158.475 112.182C158.553 111.598 158.631 111.17 158.709 110.859C159.528 107.279 163.036 104.4 169.274 102.221C169.781 102.026 170.249 101.715 170.678 101.209C171.73 99.9638 171.691 97.8237 170.678 96.5785C170.288 96.1116 169.781 95.8003 169.157 95.6446C167.559 95.2944 164.752 96.5007 162.413 97.707C160.775 98.6019 158.748 97.8626 158.007 96.1505C157.812 95.8003 157.773 95.4112 157.773 95.061C157.773 94.9442 157.773 94.7886 157.773 94.6718C157.812 93.7769 158.319 92.9208 159.06 92.376C165.298 87.9012 173.679 88.2514 176.798 93.8547C177.578 95.489 178.046 97.5124 177.89 99.9638L177.851 99.9249Z" fill="#EA2A21"/>
<path id="Vector_47" d="M162.531 121.988C162.18 123.583 160.621 124.634 159.022 124.284C157.658 123.973 156.683 122.766 156.644 121.443C156.644 121.249 156.644 121.015 156.722 120.782C157.073 119.186 158.632 118.136 160.231 118.486C160.854 118.603 161.4 118.914 161.751 119.381C162.375 120.042 162.687 121.015 162.492 121.988H162.531Z" fill="#EA2A21"/>
<path id="Vector_48" d="M154.695 78.3684C154.189 78.3684 153.682 78.2906 153.175 78.135C153.175 78.135 153.136 78.135 153.097 78.135H153.019C150.875 77.3956 149.432 75.489 149.432 73.271C149.432 71.053 149.432 72.6095 149.51 72.2204C149.666 71.3643 149.783 70.7028 149.9 70.2748C151.187 64.9439 156.567 60.6636 165.806 57.5896C166.43 57.395 166.976 56.967 167.6 56.3055C168.964 54.7879 169.003 51.9863 167.639 50.352C167.171 49.7683 166.586 49.3792 165.767 49.1458C164.091 48.7177 160.933 49.6516 156.372 51.9474C155.124 52.6089 153.604 52.6867 152.239 52.2198C150.875 51.7139 149.783 50.6633 149.237 49.3014C149.004 48.6399 148.887 48.0562 148.887 47.5115V46.9667V46.9278C149.042 45.3713 149.822 44.0872 151.109 43.2312C156.528 39.4957 163.116 38.0559 168.691 39.4178C172.707 40.3906 175.748 42.6864 177.541 46.0717C178.905 48.7955 179.451 51.8696 179.1 55.2549C179.1 55.2549 179.1 55.2549 179.1 55.2938C177.775 62.2201 172.434 66.9284 163.194 69.2631C161.947 69.6522 160.582 71.7145 159.374 75.022C158.633 77.0843 156.723 78.3684 154.656 78.3684H154.695ZM153.565 77.0454C155.553 77.6291 157.619 76.5785 158.321 74.6329C159.686 70.8974 161.206 68.7183 162.921 68.1735C171.693 65.9167 176.722 61.5197 177.97 55.0992C178.243 51.9474 177.775 49.0679 176.527 46.5776C174.929 43.5425 172.122 41.4412 168.457 40.5463C163.194 39.2622 156.957 40.6241 151.81 44.165C150.836 44.8265 150.212 45.8383 150.095 47.0056V47.5115C150.095 47.9006 150.173 48.3675 150.368 48.8734C150.797 49.924 151.616 50.7411 152.668 51.1302C153.721 51.5194 154.89 51.4415 155.865 50.9357C160.816 48.4453 164.091 47.5504 166.079 48.0562C167.132 48.3675 167.95 48.8734 168.574 49.6516C170.29 51.7139 170.251 55.1382 168.496 57.1227C167.756 57.9398 167.015 58.4846 166.196 58.718C157.346 61.6753 152.239 65.6443 151.031 70.5861C150.914 71.0141 150.797 71.6367 150.641 72.4538C150.602 72.7262 150.602 72.9597 150.602 73.271C150.602 74.9831 151.733 76.4617 153.409 76.9676H153.487H153.565V77.0454Z" fill="#B7130B"/>
<path id="Vector_49" d="M151.577 90.625C151.226 90.625 150.836 90.5861 150.485 90.5083C148.263 90.0025 146.664 87.9791 146.664 85.7222C146.664 83.4653 146.742 84.9828 146.82 84.6326C147.132 83.3485 147.873 82.259 148.965 81.5975C150.056 80.8971 151.382 80.7026 152.629 80.9749C153.643 81.1695 154.461 81.6754 155.163 82.4536C156.216 83.6598 156.645 85.333 156.294 86.8506C155.787 89.1075 153.76 90.625 151.538 90.625H151.577ZM151.577 81.9866C150.875 81.9866 150.212 82.1812 149.627 82.5703C148.77 83.1151 148.224 83.9322 147.99 84.8661C147.951 85.1774 147.873 85.4498 147.873 85.7222C147.873 87.4343 149.081 88.9518 150.758 89.341C152.746 89.8079 154.734 88.5627 155.202 86.5782C155.475 85.4109 155.163 84.1657 154.345 83.2318C153.799 82.6481 153.175 82.259 152.434 82.1034C152.161 82.0255 151.888 82.0256 151.616 82.0256L151.577 81.9866Z" fill="#B7130B"/>
<path id="Vector_50" d="M137.58 50.4291C136.216 50.4291 135.007 49.7287 134.345 48.5224C134.228 48.3278 134.111 48.0944 134.072 47.822C133.877 47.2772 133.76 46.8881 133.682 46.5768C132.707 42.8413 134.618 38.4443 139.257 33.5025C139.569 33.1523 139.764 32.7243 139.881 32.2573C140.192 30.9343 139.335 29.3389 138.087 28.7942C137.658 28.5996 137.191 28.5607 136.684 28.6774C136.06 28.8331 134.579 29.6502 132.006 33.3468C131.421 34.2029 130.524 34.7866 129.471 34.9033C128.419 35.059 127.327 34.7477 126.509 34.0862C126.197 33.8527 125.924 33.5414 125.651 33.0745V32.9967C125.534 32.9188 125.495 32.8021 125.417 32.6464C124.988 31.6736 125.027 30.5063 125.534 29.5335C127.639 25.4089 131.226 22.3738 135.163 21.3621C137.97 20.6227 140.621 21.0508 142.843 22.5294C144.52 23.7746 145.845 25.5256 146.82 27.7047C146.82 27.7047 146.82 27.7436 146.82 27.7825C148.301 32.4519 146.586 37.1213 141.713 41.674C141.167 42.2576 141.011 43.9308 141.362 46.2266C141.635 48.1722 140.348 50.001 138.438 50.3902C138.438 50.3902 138.36 50.3902 138.321 50.3902C138.087 50.4291 137.853 50.468 137.619 50.468L137.58 50.4291ZM137.269 27.3934C137.736 27.3934 138.165 27.4712 138.555 27.6657C140.309 28.4051 141.479 30.623 141.05 32.4519C140.894 33.1523 140.582 33.736 140.154 34.2418C135.748 38.8723 133.994 42.9191 134.812 46.2266C134.89 46.499 135.007 46.8881 135.202 47.4329C135.202 47.4329 135.202 47.4718 135.202 47.5107C135.202 47.6663 135.319 47.7831 135.397 47.9387C135.904 48.8726 137.035 49.3785 138.126 49.1839C138.126 49.1839 138.204 49.1839 138.243 49.1839C139.53 48.9115 140.348 47.6663 140.192 46.3434C139.803 43.5806 140.037 41.7129 140.894 40.779C145.417 36.5765 147.015 32.2962 145.728 28.0938C144.832 26.1093 143.623 24.5139 142.142 23.4244C140.231 22.1403 137.892 21.7901 135.436 22.4127C131.85 23.3466 128.536 26.1482 126.548 29.9615C126.197 30.623 126.197 31.4402 126.47 32.1017C126.47 32.1017 126.47 32.1017 126.47 32.1406C126.47 32.1795 126.509 32.2573 126.548 32.2962C126.548 32.3351 126.587 32.3741 126.626 32.413C126.781 32.7243 126.976 32.9188 127.171 33.0745C127.795 33.5803 128.536 33.7749 129.277 33.6581C129.978 33.5414 130.602 33.1523 130.992 32.5686C133.175 29.4946 134.929 27.8214 136.372 27.4323C136.645 27.3544 136.957 27.3545 137.23 27.3545L137.269 27.3934Z" fill="#B7130B"/>
<path id="Vector_51" d="M139.88 58.8345C138.594 58.8345 137.346 58.1341 136.723 56.9668C136.606 56.7722 136.489 56.4998 136.45 56.1885C135.982 54.3208 137.073 52.3752 138.984 51.8694C139.646 51.6748 140.426 51.7137 141.128 51.9861C142.181 52.3752 142.999 53.2702 143.311 54.3597C143.545 55.2936 143.428 56.2275 142.96 57.0446C142.492 57.8618 141.713 58.4454 140.816 58.6789C140.504 58.7567 140.192 58.7956 139.919 58.7956L139.88 58.8345ZM139.841 52.92C139.646 52.92 139.452 52.92 139.257 52.9978C137.97 53.3091 137.229 54.6321 137.541 55.9162C137.541 56.1107 137.658 56.2664 137.736 56.422C138.243 57.3559 139.413 57.8617 140.465 57.5894C141.089 57.4337 141.596 57.0446 141.908 56.4998C142.219 55.9551 142.297 55.2936 142.142 54.671C141.947 53.9317 141.362 53.348 140.621 53.0756C140.348 52.9589 140.075 52.92 139.802 52.92H139.841Z" fill="#B7130B"/>
<path id="Vector_52" d="M161.596 116.463C161.245 116.463 160.934 116.424 160.583 116.307C160.583 116.307 160.505 116.307 160.466 116.268C158.945 115.801 157.854 114.4 157.815 112.805C157.815 112.571 157.815 112.338 157.893 112.027C157.971 111.443 158.049 111.054 158.127 110.704C158.984 106.929 162.649 103.894 169.082 101.598C169.51 101.443 169.9 101.17 170.212 100.742C171.07 99.6916 171.07 97.9017 170.212 96.8511C169.9 96.5009 169.51 96.2674 169.004 96.1117C168.38 95.9561 166.664 96.0339 162.688 98.1351C161.791 98.641 160.739 98.7188 159.725 98.4075C158.711 98.0573 157.893 97.318 157.464 96.3063C157.23 95.8394 157.191 95.3335 157.152 94.9833C157.152 94.9444 157.152 94.9055 157.152 94.8666C157.152 94.7498 157.152 94.6331 157.152 94.4775C157.23 93.4268 157.776 92.4151 158.672 91.7536C162.415 89.0687 167.015 87.9792 170.953 88.8742C173.799 89.4968 175.943 91.0921 177.23 93.4268C178.165 95.2946 178.555 97.4737 178.399 99.8473C178.399 99.8473 178.399 99.8862 178.399 99.9251C177.58 104.75 173.916 108.135 167.483 109.964C166.703 110.237 165.807 111.676 165.066 113.855C164.52 115.373 163.117 116.346 161.557 116.346L161.596 116.463ZM160.973 115.217C162.22 115.568 163.546 114.828 163.974 113.583C164.871 110.937 165.963 109.381 167.132 108.953C173.097 107.24 176.489 104.205 177.23 99.8473C177.347 97.6682 176.996 95.7226 176.177 94.0494C175.085 92.026 173.175 90.6641 170.68 90.1194C167.054 89.3022 162.805 90.3139 159.335 92.8042C158.75 93.2323 158.322 93.9716 158.283 94.672C158.283 94.672 158.283 94.672 158.283 94.7109C158.283 94.7498 158.283 94.8277 158.283 94.9055C158.283 94.9444 158.283 95.0222 158.283 95.0611C158.283 95.4113 158.361 95.6837 158.477 95.8783C158.789 96.5787 159.374 97.1234 160.076 97.3569C160.739 97.5904 161.479 97.5126 162.103 97.1624C165.456 95.4113 167.795 94.7109 169.238 95.0611C170.017 95.2557 170.602 95.6448 171.07 96.1896C172.317 97.6682 172.317 100.12 171.07 101.598C170.641 102.143 170.095 102.532 169.432 102.805C163.39 104.945 159.959 107.707 159.218 111.054C159.179 111.326 159.101 111.754 159.023 112.299C159.023 112.299 159.023 112.377 159.023 112.416C158.984 112.571 158.984 112.727 158.984 112.883C158.984 113.933 159.764 114.906 160.856 115.217C160.856 115.217 160.934 115.217 160.973 115.256V115.217Z" fill="#B7130B"/>
<path id="Vector_53" d="M159.607 124.946C159.373 124.946 159.1 124.946 158.866 124.868C157.268 124.518 156.059 123.078 156.059 121.483C156.059 121.249 156.059 120.938 156.176 120.626C156.605 118.72 158.476 117.514 160.387 117.942C161.088 118.058 161.751 118.447 162.258 119.031C163.038 119.848 163.349 121.016 163.116 122.144C162.726 123.817 161.283 124.946 159.646 124.946H159.607ZM159.607 118.992C158.515 118.992 157.541 119.77 157.268 120.899C157.229 121.055 157.19 121.249 157.19 121.444C157.19 122.533 158.008 123.467 159.1 123.701C160.348 123.973 161.634 123.156 161.907 121.872C162.063 121.132 161.829 120.315 161.322 119.77C161.01 119.381 160.582 119.148 160.114 119.07C159.958 119.07 159.763 119.031 159.607 119.031V118.992Z" fill="#B7130B"/>
<path id="Vector_54" d="M67.9127 93.3491C66.3143 95.4504 66.1973 98.0964 67.7177 99.1859C69.2382 100.314 71.7332 99.575 73.2927 97.4738C74.8911 95.3725 75.008 92.7265 73.4876 91.637C72.0451 90.5086 69.5501 91.3257 67.9127 93.3491Z" fill="#22213F"/>
<path id="Vector_55" d="M69.3951 100.314C68.6544 100.314 67.9526 100.12 67.4068 99.6527C66.5491 98.9912 66.0813 97.8628 66.0813 96.6176C66.1593 95.3724 66.6271 94.1272 67.4458 92.9988C69.2392 90.6252 72.1241 89.847 73.8394 91.17C74.6971 91.8315 75.1649 92.9599 75.1649 94.2051C75.087 95.4503 74.6192 96.6954 73.8005 97.8239C72.9428 98.9523 71.8122 99.7305 70.6426 100.12C70.2528 100.236 69.8629 100.314 69.3951 100.314ZM71.8902 91.7147C70.7596 91.7147 69.3951 92.4541 68.4205 93.7381C67.6797 94.672 67.2899 95.7226 67.2899 96.6954C67.2899 97.6682 67.5628 98.3297 68.1476 98.7967C68.7323 99.2636 69.512 99.3414 70.3697 99.069C71.3054 98.7967 72.202 98.1352 72.9428 97.2402C73.6835 96.3063 74.0734 95.2557 74.0734 94.2829C74.0734 93.3101 73.8005 92.6486 73.2157 92.1817C72.9038 91.8704 72.436 91.7147 71.8902 91.7147Z" fill="#BF4B6F"/>
<path id="Vector_56" d="M140.075 121.288C130.328 135.918 104.091 119.498 91.5765 114.128C87.639 112.299 84.4032 110.976 86.0406 106.696C88.7306 102.221 92.7461 105.645 96.5667 107.357C107.483 111.638 125.572 123.7 133.018 116.929C134.539 114.517 133.954 108.992 129.315 102.065C128.067 100.159 128.535 97.5904 130.445 96.2674C132.355 95.0222 134.928 95.4892 136.254 97.3958C142.297 106.462 143.739 115.334 140.075 121.249V121.288Z" fill="#ED7E97"/>
<path id="Vector_57" d="M91.6174 108.097C91.5005 108.175 90.8767 108.408 89.98 108.486C89.7071 108.564 89.3952 108.564 89.0444 108.564C87.9918 108.564 86.7442 108.369 85.1458 107.824C83.8203 107.358 82.2999 106.657 80.6235 105.529C79.6878 104.867 79.4539 103.622 80.0387 102.649C80.5455 101.871 81.4812 101.521 82.3389 101.793C82.5338 101.871 82.7287 101.91 82.9237 102.066C86.1984 104.245 88.3036 104.439 89.3173 104.361C89.6292 104.361 89.7851 104.284 89.9021 104.284H89.8241L91.6174 108.097Z" fill="#ED7E97"/>
<path id="Vector_58" d="M93.0583 107.435C92.7854 108.291 91.9277 108.875 91.07 108.875C90.2123 108.875 90.6022 108.797 90.4072 108.758C90.2123 108.719 90.0954 108.641 89.8615 108.486C89.0817 107.98 88.7309 107.046 89.0817 106.112C89.2767 105.528 89.2767 104.945 89.2767 104.4C89.1987 104.011 89.1597 103.622 89.0038 103.232C88.6919 102.26 88.2241 101.598 88.2241 101.52C87.5613 100.586 87.8342 99.3023 88.7699 98.6408C89.7055 97.9793 90.992 98.2517 91.6548 99.1467C91.7717 99.4191 94.4228 103.271 93.0193 107.435H93.0583Z" fill="#ED7E97"/>
<path id="Vector_59" d="M89.0436 112.961C87.2503 112.961 85.9637 112.494 85.0281 111.599C84.0924 110.704 83.8975 109.498 83.9755 108.642C84.0924 107.514 85.145 106.735 86.2756 106.852C87.2503 106.969 87.991 107.786 88.069 108.681C88.2639 108.759 88.8097 108.798 89.7843 108.759C90.9149 108.642 91.9675 109.498 92.0845 110.588C92.2014 111.716 91.3438 112.767 90.2522 112.883C89.7843 112.961 89.3945 112.961 89.0826 112.961H89.0436Z" fill="#ED7E97"/>
<path id="Vector_60" d="M89.3166 113.466C87.2503 113.466 85.6519 112.999 84.5993 111.949C83.5467 110.82 83.2738 109.458 83.4298 108.524C83.5077 108.058 83.7027 107.591 83.9366 107.201C84.1315 106.929 84.5214 106.929 84.7163 107.124C84.9892 107.318 84.9892 107.707 84.7943 107.902C84.5993 108.096 84.5214 108.369 84.4824 108.641C84.4044 109.303 84.5603 110.275 85.34 111.054C86.1198 111.832 87.6012 112.221 89.2386 112.221C89.2386 112.221 89.5505 112.532 89.5505 112.883C89.6675 113.194 89.6674 113.427 89.3166 113.427V113.466Z" fill="#BF4B6F"/>
<path id="Vector_61" d="M84.5997 64.7885H84.4048C84.0929 64.6717 83.937 64.3216 84.015 64.0492C87.6406 53.1539 78.8689 48.8736 78.479 48.6791C78.2841 48.5623 78.1671 48.3678 78.1671 48.0954C78.479 43.9708 77.8552 40.8578 76.0619 39.029C74.7754 37.6282 73.177 37.3169 72.3583 37.2001C72.0464 37.2001 71.8515 36.9277 71.8125 36.6553C71.8125 36.3051 72.0854 35.9939 72.4362 36.0328C73.4499 36.1106 75.3212 36.4997 76.8416 38.1729C78.7519 40.1963 79.5316 43.426 79.2587 47.7063C81.0521 48.6791 88.5373 53.6987 85.0676 64.2437C85.0676 64.6328 84.8726 64.7496 84.5997 64.7496V64.7885Z" fill="#ED7E97"/>
<path id="Vector_62" d="M68.1082 160.122C66.5877 166.231 49.668 164.129 50.2918 160.511C50.2918 160.589 59.8432 163.585 68.1082 160.122Z" fill="#E26988"/>
<path id="Vector_63" d="M106.703 161.211C105.339 164.479 89.4717 165.958 88.8869 159.577H89.0039C89.0039 159.577 95.6314 163.896 106.703 161.211Z" fill="#E26988"/>
<path id="Vector_64" d="M97.621 164.558C94.853 164.558 92.0851 164.013 90.3307 162.768C88.6933 161.6 88.0306 159.927 88.4984 157.981C88.5764 157.67 88.8882 157.476 89.2391 157.515C89.551 157.592 89.7459 157.904 89.7069 158.254C89.395 159.771 89.8239 160.939 91.0714 161.873C94.5021 164.285 102.728 163.585 105.496 161.756C105.886 161.483 106.432 161.094 106.354 160.627C105.808 157.787 98.4397 156.814 95.7107 156.736C95.3988 156.736 95.1259 156.464 95.1649 156.153C95.1649 155.841 95.4378 155.569 95.7497 155.608C96.8803 155.686 106.744 156.192 107.523 160.472C107.64 161.055 107.445 161.912 106.159 162.768C104.365 163.818 101.013 164.558 97.66 164.558H97.621Z" fill="#BF4B6F"/>
<path id="Vector_65" d="M59.4921 164.557C56.1394 164.557 52.7866 163.818 51.0713 162.728C49.7457 161.872 49.6288 161.016 49.7068 160.432C50.4475 156.152 60.3498 155.646 61.4804 155.568C61.7923 155.568 62.0652 155.841 62.0652 156.113C62.0652 156.386 61.7923 156.697 61.5194 156.697C58.6734 156.814 51.3831 157.748 50.8763 160.588C50.7984 161.055 51.2662 161.444 51.734 161.717C54.58 163.506 62.7279 164.207 66.1587 161.833C67.4062 160.899 67.874 159.81 67.5232 158.214C67.4452 157.903 67.6401 157.631 67.991 157.475C68.3029 157.397 68.5758 157.592 68.7317 157.942C69.1995 159.927 68.5368 161.639 66.8994 162.728C65.0671 164.051 62.2991 164.557 59.5311 164.557H59.4921Z" fill="#BF4B6F"/>
<path id="Vector_66" d="M24.0919 122.261C23.1172 122.533 22.0646 122.728 20.8561 122.922C15.0083 123.973 10.33 123.506 7.17215 121.677C4.5991 120.16 2.96172 117.786 2.41593 114.79C1.55824 109.809 3.35158 103.155 7.8739 95.1006C11.0317 89.4584 14.3845 85.0614 14.5014 84.8668C15.8659 83.038 18.5169 82.6878 20.3103 84.0886C20.6222 84.361 20.8951 84.6334 21.168 84.9446C21.168 84.9446 18.0101 83.6216 14.3845 89.614C10.8368 95.6064 2.61084 110.12 5.88563 117.202C9.12143 124.245 23.702 122.339 24.0529 122.339L24.0919 122.261Z" fill="#F490AA"/>
<path id="Vector_67" d="M133.409 119.77C125.651 125.335 96.5675 107.28 96.5675 107.28C105.339 111.56 119.53 117.98 125.456 118.759C127.639 119.07 131.577 119.226 133.019 116.774C134.539 114.362 133.955 108.836 129.315 101.91C128.068 100.003 128.536 97.435 130.446 96.112C130.446 96.2288 141.167 114.167 133.409 119.693V119.77Z" fill="#F490AA"/>
<path id="Vector_68" d="M140.075 121.288C138.555 123.662 135.124 127.32 127.756 127.32C120.388 127.32 125.573 127.242 124.325 127.047C116.294 125.997 99.3355 117.903 91.5384 114.09C92.3181 114.401 119.647 125.724 130.251 124.674C141.05 123.545 142.804 108.992 136.177 97.4743C142.298 106.463 143.74 115.335 140.075 121.249V121.288Z" fill="#E26988"/>
<path id="Vector_69" d="M127.756 127.864C126.625 127.864 125.456 127.786 124.286 127.591C115.281 126.346 95.0082 116.424 89.0044 113.389C88.7315 113.272 88.6146 112.922 88.7315 112.61C88.8485 112.338 89.1994 112.221 89.5112 112.338C95.437 115.373 115.593 125.218 124.442 126.385C125.612 126.502 126.742 126.657 127.795 126.657C134.968 126.657 138.243 123.039 139.647 120.86C143.194 115.217 141.752 106.54 135.748 97.6683C134.618 96.034 132.473 95.6449 130.797 96.6955C130.017 97.2403 129.471 98.0185 129.277 98.9913C129.082 99.9252 129.277 100.898 129.822 101.676C134.968 109.303 135.007 114.751 133.565 117.124C131.928 119.809 127.717 119.692 125.417 119.342C117.464 118.291 95.671 107.435 93.2539 106.19C92.981 106.073 92.864 105.723 92.981 105.412C93.0979 105.139 93.4488 105.023 93.7607 105.139C96.1778 106.385 117.854 117.085 125.612 118.136C127.639 118.408 131.343 118.603 132.668 116.424C134.033 114.245 133.448 108.875 128.965 102.221C128.224 101.17 127.99 99.9252 128.224 98.68C128.497 97.4348 129.16 96.3842 130.212 95.6449C132.395 94.2052 135.358 94.7888 136.801 96.9679C143.038 106.151 144.52 115.373 140.699 121.404C139.062 123.817 135.514 127.786 127.717 127.786L127.756 127.864Z" fill="#BF4B6F"/>
<path id="Vector_70" d="M23.2362 113.933C7.44702 120.354 6.90123 115.451 9.9421 105.801C12.983 96.1508 21.7937 86.5396 21.7937 86.5396L21.8717 87.6681C21.7937 88.4463 21.5598 89.1856 21.014 89.8471C21.014 89.8471 20.2343 90.8977 19.0257 92.6098C17.8951 94.3219 16.3747 96.6177 14.9322 99.1859C11.5795 105.295 9.9421 110.47 10.4489 113.389C10.5659 114.05 10.8388 114.323 11.2286 114.556C13.5288 115.879 19.0647 115.062 23.1972 113.972L23.2362 113.933Z" fill="#E26988"/>
<path id="Vector_71" d="M15.0879 124.051C11.8132 124.09 9.04517 123.389 6.86197 122.144C4.17197 120.549 2.37864 118.058 1.79385 114.868C0.8582 109.731 2.72951 102.961 7.32981 94.7503C10.4876 89.0303 13.8404 84.6333 13.9573 84.4387C15.5558 82.3375 18.4797 81.9484 20.5849 83.5049C22.6901 85.1002 23.08 88.0186 21.5206 90.1587C21.5206 90.2366 18.3627 94.2834 15.5168 99.4197C12.242 105.412 10.5656 110.471 11.1114 113.233C11.1894 113.778 11.3843 113.895 11.5792 114.012C13.7624 115.257 19.7272 114.479 24.2105 113.039C24.5224 112.961 24.8733 113.117 24.9513 113.428C25.0292 113.739 24.8733 114.089 24.5614 114.167C21.1307 115.218 13.9573 116.813 10.9555 115.101C10.3707 114.79 10.0198 114.323 9.90284 113.506C9.35704 110.471 11.0334 105.179 14.4252 98.9139C17.3101 93.7386 20.4679 89.5362 20.4679 89.5362C21.6375 87.9408 21.3256 85.7228 19.8052 84.5555C18.2068 83.3881 15.9846 83.6994 14.815 85.2169C14.6981 85.4115 11.3843 89.7307 8.22647 95.4118C3.74313 103.428 1.98879 109.926 2.84647 114.712C3.39227 117.553 4.87372 119.771 7.32981 121.132C10.4097 122.922 14.893 123.311 20.6239 122.3C24.5614 121.638 27.7193 120.51 27.8752 120.471C28.9668 120.004 29.7465 119.381 29.7465 119.381C30.0194 119.576 30.6432 120.276 30.4482 120.471C28.8498 122.105 21.2476 124.012 15.1269 124.09L15.0879 124.051Z" fill="#BF4B6F"/>
<path id="Vector_72" d="M33.373 107.046C33.373 107.046 28.1099 106.968 24.8741 111.716C25.5369 109.809 27.0573 107.396 30.683 105.879C31.7356 105.49 32.9831 105.996 33.373 107.046Z" fill="#F490AA"/>
<path id="Vector_73" d="M36.0226 111.248C35.9056 111.248 34.0343 110.081 28.9662 112.61C28.6933 112.727 28.4204 112.61 28.3034 112.61C28.1085 112.532 28.2255 112.338 28.7713 112.066C28.8492 111.988 29.3171 111.676 30.0188 111.093C30.3307 110.82 30.6816 110.548 31.0714 110.315C31.1884 110.237 31.3443 110.12 31.4613 110.042C32.0071 109.653 32.6308 109.186 33.2546 108.797C33.1376 109.069 32.9817 109.264 32.7868 109.458C32.9037 109.381 32.9817 109.381 33.0986 109.342C34.1513 108.953 35.3988 109.458 35.7887 110.509C35.9056 110.704 35.9836 110.976 35.9836 111.248H36.0226Z" fill="#F490AA"/>
<path id="Vector_74" d="M36.8021 116.345C36.8801 114.633 34.6189 114.166 32.7866 114.127C31.656 114.05 30.6814 114.205 30.6034 114.205L34.0341 113.427L35.9444 112.96C36.7241 113.233 37.3089 113.933 37.3869 114.789C37.4648 115.373 37.1919 115.956 36.8021 116.384V116.345Z" fill="#F490AA"/>
<path id="Vector_75" d="M24.4445 114.127H24.3665C24.0546 114.05 23.8207 113.816 23.8207 113.466C24.0156 111.754 25.0682 107.474 30.4092 105.333C31.072 105.061 31.7737 105.061 32.4365 105.333C33.0992 105.606 33.606 106.112 33.8789 106.773C34.2688 107.824 33.9959 108.991 33.2162 109.73C32.9433 109.925 32.6314 109.925 32.4365 109.653C32.2416 109.38 32.2415 109.069 32.5144 108.874C32.9823 108.485 33.0992 107.746 32.9043 107.24C32.7873 106.851 32.4365 106.579 32.1246 106.462C31.7347 106.345 31.3449 106.345 30.994 106.462C26.1988 108.369 25.2631 112.182 25.0682 113.699C24.9902 113.972 24.7563 114.166 24.4055 114.166L24.4445 114.127Z" fill="#BF4B6F"/>
<path id="Vector_76" d="M27.6012 113.583C27.3283 113.389 27.2894 113.038 27.4843 112.805C28.4199 111.56 30.1743 109.77 33.0202 108.68C34.3847 108.136 35.9052 108.797 36.451 110.198C36.8408 111.326 36.5289 112.571 35.5933 113.272C35.3204 113.466 35.0085 113.389 34.8136 113.155C34.6186 112.883 34.6966 112.571 34.9305 112.377C35.4763 111.988 35.6713 111.248 35.3984 110.665C35.0865 109.887 34.2288 109.536 33.4881 109.809C30.837 110.782 29.2776 112.377 28.4979 113.544C28.186 113.894 27.7182 113.661 27.6402 113.622L27.6012 113.583Z" fill="#BF4B6F"/>
<path id="Vector_77" d="M29.9408 120.509C29.8239 120.509 29.6679 120.431 29.551 120.393C29.2781 120.198 29.2781 119.809 29.473 119.614C29.473 119.614 31.8901 116.657 35.3988 116.462C35.6717 116.462 35.8666 116.385 36.0616 116.268C36.5294 115.996 36.8023 115.49 36.8023 114.906C36.7243 114.128 36.0226 113.466 35.2039 113.544C33.4885 113.661 31.8511 114.206 30.2527 115.178C29.9798 115.373 29.59 115.256 29.473 114.984C29.2781 114.711 29.395 114.322 29.6679 114.206C31.4613 113.155 33.2936 112.571 35.1259 112.416C36.5684 112.338 37.8159 113.466 37.9718 114.906C38.0498 115.879 37.582 116.813 36.7243 117.319C36.3345 117.513 35.9446 117.63 35.4768 117.708C32.5919 117.902 30.4087 120.393 30.4087 120.47C30.2917 120.393 30.1358 120.548 29.9408 120.548V120.509Z" fill="#BF4B6F"/>
<path id="Vector_78" d="M85.2234 107.824H85.1064C83.7809 107.358 82.2605 106.657 80.5841 105.529C79.6485 104.867 79.4146 103.622 79.9993 102.649C80.5062 101.871 81.4418 101.521 82.2995 101.793C82.1046 102.066 79.4535 104.284 85.2624 107.824H85.2234Z" fill="#F490AA"/>
<path id="Vector_79" d="M91.6942 99.2249C91.2263 99.1471 89.1991 99.1471 89.0431 103.233C88.7312 102.26 88.2634 101.599 88.2634 101.521C87.6007 100.587 87.8736 99.3027 88.8092 98.6412C89.7839 98.0575 91.0314 98.3299 91.6942 99.2249Z" fill="#F490AA"/>
<path id="Vector_80" d="M85.6511 108.019C85.5341 108.369 85.1832 108.525 84.8323 108.408C83.3509 107.863 81.7915 107.085 80.271 106.074C79.6862 105.684 79.2964 105.101 79.1405 104.361C78.9845 103.622 79.1405 102.999 79.5303 102.377C80.31 101.132 81.9474 100.782 83.2339 101.638C86.3138 103.739 88.38 103.933 89.2767 103.856C89.5886 103.856 89.8615 104.05 89.8615 104.4C89.8615 104.751 89.6666 104.984 89.3157 104.984C88.2631 105.062 85.9629 104.867 82.5322 102.571C81.8695 102.105 80.8948 102.299 80.505 102.961C80.31 103.272 80.1931 103.7 80.31 104.089C80.388 104.478 80.6219 104.828 80.9728 105.023C82.4932 105.996 83.9357 106.735 85.3002 107.241C85.6121 107.358 85.768 107.708 85.6511 108.019Z" fill="#BF4B6F"/>
<path id="Vector_81" d="M93.4094 105.567L93.4874 106.346C93.4874 106.346 92.7856 106.19 92.8246 105.723C93.1365 102.454 91.3042 99.6917 91.1872 99.536C90.7194 98.8745 89.8227 98.68 89.082 99.1469C88.4192 99.6139 88.2243 100.509 88.6921 101.17C88.7701 101.248 89.6668 102.688 89.8617 104.4C89.8617 104.711 89.5888 104.945 89.2769 104.984C88.965 105.061 88.6921 104.789 88.6142 104.439C88.4972 103.077 87.6785 101.871 87.6785 101.871C86.8988 100.703 87.1327 99.0302 88.4192 98.1741C89.5888 97.3181 91.3042 97.6293 92.1229 98.8356C92.2008 98.9523 94.345 102.104 93.9552 105.801C94.0332 106.073 93.7602 105.528 93.4094 105.528V105.567Z" fill="#BF4B6F"/>
<path id="Vector_82" d="M54.7739 91.9094C53.4484 91.9094 52.1229 91.6371 50.8753 91.1701C44.6376 88.6798 41.9086 80.5862 44.8715 73.1151C46.314 69.4963 48.8091 66.6169 51.9669 64.9048C55.1247 63.1926 58.5555 62.9203 61.6353 64.1265C67.873 66.6169 70.602 74.7105 67.6391 82.1815C66.1966 85.8003 63.7016 88.6798 60.5437 90.3919C58.6334 91.4425 56.6452 91.9094 54.7349 91.9094H54.7739ZM57.7758 64.5934C56.0604 64.5934 54.306 65.0604 52.5907 65.9554C49.7057 67.5507 47.3276 70.2357 46.0021 73.5821C43.2341 80.4305 45.6902 87.8237 51.3431 90.1195C54.0331 91.248 57.152 90.9756 60.0369 89.3802C62.9218 87.7848 65.3 85.0999 66.6255 81.7535C69.3934 74.9051 66.9374 67.5118 61.2845 65.216C60.1149 64.7491 58.9843 64.5545 57.8147 64.5545L57.7758 64.5934Z" fill="#BF4B6F"/>
<path id="Vector_83" d="M105.689 91.0538C100.543 91.0538 95.2803 87.435 92.8632 81.6761C89.7054 74.3218 92.2004 66.1892 98.3991 63.4654C101.44 62.1424 104.832 62.337 108.068 64.0102C111.225 65.6445 113.876 68.485 115.358 72.026C118.516 79.3803 116.021 87.5128 109.822 90.2367C108.496 90.8203 107.132 91.0927 105.689 91.0927V91.0538ZM102.532 63.8156C101.284 63.8156 100.037 64.088 98.828 64.555C93.2531 66.9286 90.9919 74.3996 93.8768 81.1702C96.7618 87.9409 103.701 91.5596 109.354 89.1082C114.929 86.7346 117.19 79.2636 114.305 72.4929C112.941 69.2244 110.485 66.5005 107.522 65.0219C105.884 64.2826 104.169 63.8545 102.532 63.8545V63.8156Z" fill="#BF4B6F"/>
</g>
</svg>
